{"title":"Executive Decision-720p MP4 AAC x264 BRRip 1996-CC","uid":7578934,"size":2680490950,"categoryP":"video","categoryS":"hd___movies","magnet":"?xt=urn:btih:f5b66c7138ec4422de771ae46f6be2e698c73333&amp;dn=Executive+Decision-720p+MP4+AAC+x264+BRRip+1996-CC&amp;tr=udp%3A%2F%2Ftracker.openbittorrent.com%3A80&amp;tr=udp%3A%2F%2Fopen.demonii.com%3A1337&amp;tr=udp%3A%2F%2Ftracker.coppersurfer.tk%3A6969&amp;tr=udp%3A%2F%2Fexodus.desync.com%3A6969","seeders":1,"leechers":0,"uploader":"Caveman44","files":-1,"time":1346189004,"description":" &lt;a href=&quot;http://www.imdb.com/title/tt0116253/&quot; rel=&quot;nofollow&quot; target=&quot;_NEW&quot;&gt;http://www.imdb.com/title/tt0116253/&lt;/a&gt;\n\nSource: Executive.Decision.1996.720p.BluRay.X264-AMIABLE Thanks!\n\nSubs: Arabic, Bulgarian, Danish, Dutch, English, Finnish, Grench, Greek, Polish, Romanian, Slovenian and Vietnamese.\n\nSample and Screens included.\n\nGeneral\nComplete name                    : Executive Decision-720p MP4 AAC x264 BRRip 1996-CC.mp4\nFormat                           : MPEG-4\nFormat profile                   : Base Media\nCodec ID                         : isom\nFile size                        : 2.47 GiB\nDuration                         : 2h 12mn\nOverall bit rate                 : 2 663 Kbps\nEncoded date                     : UTC 2012-08-21 15:21:59 \n\nVideo\nID                               : 1\nFormat                           : AVC\nFormat/Info                      : Advanced Video Codec\nFormat profile                   : &lt;a class=&quot;__cf_email__&quot; href=&quot;/cdn-cgi/l/email-protection&quot; data-cfemail=&quot;3a72535d527a7609140b&quot;&gt;[email&amp;#160;protected]&lt;/a&gt;&lt;script data-cfhash='f9e31' type=&quot;text/javascript&quot;&gt;\n/* &lt;![CDATA[ */!function(){try{var t=&quot;currentScript&quot;in document?document.currentScript:function(){for(var t=document.getElementsByTagName(&quot;script&quot;),e=t.length;e--;)if(t[e].getAttribute(&quot;data-cfhash&quot;))return t[e]}();if(t&amp;&amp;t.previousSibling){var e,r,n,i,c=t.previousSibling,a=c.getAttribute(&quot;data-cfemail&quot;);if(a){for(e=&quot;&quot;,r=parseInt(a.substr(0,2),16),n=2;a.length-n;n+=2)i=parseInt(a.substr(n,2),16)^r,e+=String.fromCharCode(i);e=document.createTextNode(e),c.parentNode.replaceChild(e,c)}t.parentNode.removeChild(t);}}catch(u){}}()/* ]]&gt; */&lt;/script&gt;\nFormat settings, CABAC           : Yes\nFormat settings, ReFrames        : 5 frames\nCodec ID                         : avc1\nCodec ID/Info                    : Advanced Video Coding\nDuration                         : 2h 12mn\nBit rate mode                    : Variable\nBit rate                         : 2 274 Kbps\nNominal bit rate                 : 2 288 Kbps\nMaximum bit rate                 : 18.1 Mbps\nWidth                            : 1 280 pixels\nHeight                           : 528 pixels\nDisplay aspect ratio             : 2.35:1\nFrame rate mode                  : Variable\nFrame rate                       : 23.976 fps\nMinimum frame rate               : 15.997 fps\nMaximum frame rate               : 25.000 fps\nResolution                       : 24 bits\nColorimetry                      : 4:2:0\nScan type                        : Progressive\nBits/(Pixel*Frame)               : 0.140\nStream size                      : 2.11 GiB (85%)\nWriting library                  : x264 core 112\n\nAudio\nID                               : 2\nFormat                           : AAC\nFormat/Info                      : Advanced Audio Codec\nFormat version                   : Version 4\nFormat profile                   : LC\nFormat settings, SBR             : No\nCodec ID                         : 40\nDuration                         : 2h 12mn\nBit rate mode                    : Variable\nBit rate                         : 384 Kbps\nMaximum bit rate                 : 600 Kbps\nChannel(s)                       : 6 channels\nChannel positions                : Front: L C R, Rear: L R, LFE\nSampling rate                    : 48.0 KHz\nResolution                       : 16 bits\nStream size                      : 364 MiB (14%)\nLanguage                         : English\n\nEnjoy...\n\nRequested by aartje80.","torrent":{"xt":"urn:btih:f5b66c7138ec4422de771ae46f6be2e698c73333","amp;dn":"Executive+Decision-720p+MP4+AAC+x264+BRRip+1996-CC","amp;tr":["udp%3A%2F%2Ftracker.openbittorrent.com%3A80","udp%3A%2F%2Fopen.demonii.com%3A1337","udp%3A%2F%2Ftracker.coppersurfer.tk%3A6969","udp%3A%2F%2Fexodus.desync.com%3A6969"],"infoHash":"f5b66c7138ec4422de771ae46f6be2e698c73333","infoHashBuffer":{"type":"Buffer","data":[245,182,108,113,56,236,68,34,222,119,26,228,111,107,226,230,152,199,51,51]},"announce":[],"urlList":[]}}